#!OML:ASF E:\Style4\Style4.ASF
:FULLY-SPECIFIED
:DEGREES
2632
root -0.279946 17.7862 -1.55852 1.57523 -1.89661 2.10442
lowerback 5.59114 1.91838 -0.250999
upperback 1.76833 2.54588 0.456085
thorax -1.34471 1.26989 0.439154
lowerneck -3.1425 -4.68413 -6.09182
upperneck 5.65467 -6.12026 3.14772
head 2.67914 -3.08754 1.86632
rclavicle 6.5102e-015 1.19271e-014
rhumerus -32.0381 27.9251 -94.9383
rradius 83.1664
rwrist 1.76295
rhand -34.4209 29.8632
rfingers 7.12502
rthumb -7.58587 0.0192786
lclavicle 6.5102e-015 1.19271e-014
lhumerus -38.5392 -39.0954 101.487
lradius 91.2524
lwrist -0.560471
lhand -21.4971 17.2846
lfingers 7.12502
lthumb 4.89441 47.2081
rfemur -13.4397 1.55849 17.1143
rtibia 32.4046
rfoot -19.1633 -14.6717
rtoes -13.1828
lfemur -10.097 -2.94345 -20.4179
ltibia 28.8254
lfoot -20.1588 9.56425
ltoes -13.8136
2633
root -0.278894 17.7854 -1.54709 1.63023 -1.83418 2.1363
lowerback 5.4998 1.92432 -0.284019
upperback 1.79641 2.5515 0.421163
thorax -1.26492 1.27266 0.425404
lowerneck -3.17147 -4.7089 -6.10027
upperneck 5.60115 -6.15257 3.18191
head 2.67006 -3.10217 1.87749
rclavicle 3.38928e-014 3.97569e-016
rhumerus -33.5664 27.7008 -95.8411
rradius 82.9576
rwrist 0.989581
rhand -34.0862 29.5736
rfingers 7.12502
rthumb -7.2628 -0.281785
lclavicle 3.38928e-014 3.97569e-016
lhumerus -39.9565 -38.9877 102.624
lradius 90.9059
lwrist -0.00871539
lhand -21.991 17.5408
lfingers 7.12502
lthumb 4.41742 47.4747
rfemur -13.5078 1.49068 17.0706
rtibia 32.5314
rfoot -19.286 -14.6554
rtoes -12.9971
lfemur -10.1695 -2.98641 -20.4569
ltibia 28.9031
lfoot -20.1786 9.56268
ltoes -13.9984
2634
root -0.277341 17.7842 -1.5358 1.76742 -1.56765 2.11099
lowerback 5.30082 1.85768 -0.23759
upperback 1.79973 2.46553 0.41026
thorax -1.14741 1.22981 0.401044
lowerneck -3.16284 -4.74206 -6.16794
upperneck 5.53557 -6.19745 3.25668
head 2.65506 -3.12344 1.91299
rclavicle 2.72335e-014 -7.95139e-016
rhumerus -34.96 27.5624 -96.6107
rradius 82.7933
rwrist -0.0122958
rhand -33.7237 29.3465
rfingers 7.12502
rthumb -6.91284 -0.520599
lclavicle 2.72335e-014 -7.95139e-016
lhumerus -41.3344 -38.8506 103.7
lradius 90.6452
lwrist 0.424131
lhand -22.3743 17.8142
lfingers 7.12502
lthumb 4.04736 47.7555
rfemur -13.5877 1.28204 17.0995
rtibia 32.6445
rfoot -19.4378 -14.5766
rtoes -12.4657
lfemur -10.3491 -3.25325 -20.4264
ltibia 28.9708
lfoot -20.1717 9.58225
ltoes -14.0834
2635
root -0.276142 17.7828 -1.52827 1.8355 -1.26189 2.08939
lowerback 5.18734 1.75986 -0.210237
upperback 1.82153 2.33675 0.398542
thorax -1.05905 1.16555 0.386063
lowerneck -3.15162 -4.74994 -6.18179
upperneck 5.4536 -6.20939 3.30021
head 2.6286 -3.12796 1.93006
rclavicle 1.14301e-015 -1.98785e-015
rhumerus -36.2204 27.5413 -97.3289
rradius 82.5678
rwrist -1.17082
rhand -33.4133 29.1727
rfingers 7.12502
rthumb -6.61325 -0.70401
lclavicle 1.14301e-015 -1.98785e-015
lhumerus -42.5406 -38.7553 104.674
lradius 90.383
lwrist 0.810548
lhand -22.5029 18.053
lfingers 7.12502
lthumb 3.9231 47.9966
rfemur -13.5597 1.01937 17.138
rtibia 32.7173
rfoot -19.5187 -14.4229
rtoes -11.6588
lfemur -10.4662 -3.51355 -20.3901
ltibia 29.0378
lfoot -20.1953 9.51424
ltoes -13.8547
2636
root -0.274592 17.7799 -1.5261 1.68922 -1.08645 2.12515
lowerback 5.38203 1.71167 -0.26107
upperback 1.86294 2.26953 0.389061
thorax -1.12591 1.13188 0.403332
lowerneck -3.12646 -4.75117 -6.22424
upperneck 5.39609 -6.20955 3.30324
head 2.60661 -3.12862 1.93946
rclavicle 2.93207e-015 -7.15625e-015
rhumerus -37.3729 27.5557 -97.9352
rradius 82.3318
rwrist -2.32968
rhand -33.0151 29.05
rfingers 7.12502
rthumb -6.2288 -0.838474
lclavicle 2.93207e-015 -7.15625e-015
lhumerus -43.6833 -38.6937 105.619
lradius 90.1586
lwrist 1.21685
lhand -22.6319 18.1042
lfingers 7.12502
lthumb 3.79859 48.0501
rfemur -13.3741 0.903015 17.1043
rtibia 32.7535
rfoot -19.6111 -14.4412
rtoes -11.6709
lfemur -10.3531 -3.64704 -20.4402
ltibia 29.1072
lfoot -20.2262 9.50458
ltoes -14.197
2637
root -0.274838 17.7768 -1.52393 1.58342 -0.989266 2.12446
lowerback 5.53532 1.70996 -0.269408
upperback 1.87831 2.26618 0.368724
thorax -1.19494 1.13023 0.382695
lowerneck -3.08919 -4.77364 -6.19916
upperneck 5.35034 -6.23944 3.25209
head 2.58253 -3.14427 1.9178
rclavicle -4.47266e-015 1.59028e-015
rhumerus -38.3865 27.5923 -98.3796
rradius 82.0488
rwrist -3.66519
rhand -32.4421 29.0182
rfingers 7.12502
rthumb -5.67561 -0.885798
lclavicle -4.47266e-015 1.59028e-015
lhumerus -44.7172 -38.7075 106.431
lradius 89.9913
lwrist 1.57602
lhand -22.536 18.004
lfingers 7.12502
lthumb 3.89117 47.9482
rfemur -13.2818 0.877639 17.1066
rtibia 32.7487
rfoot -19.6675 -14.6482
rtoes -12.2299
lfemur -10.2691 -3.73878 -20.4437
ltibia 29.1654
lfoot -20.2467 9.47755
ltoes -14.1133
2638
root -0.276462 17.7735 -1.52248 1.54747 -0.910055 2.0664
lowerback 5.57491 1.74993 -0.250115
upperback 1.89289 2.32009 0.355544
thorax -1.20118 1.15717 0.353867
lowerneck -3.12802 -4.81416 -6.14352
upperneck 5.39221 -6.29542 3.26067
head 2.60466 -3.1707 1.90735
rclavicle 1.48592e-014 -1.55052e-014
rhumerus -39.2249 27.5686 -98.6694
rradius 81.7076
rwrist -4.92863
rhand -31.9961 29.1301
rfingers 7.12502
rthumb -5.24496 -0.785004
lclavicle 1.48592e-014 -1.55052e-014
lhumerus -45.6877 -38.9024 107.202
lradius 89.9411
lwrist 1.94373
lhand -22.4091 18.144
lfingers 7.12502
lthumb 4.01376 48.0859
rfemur -13.223 0.928745 17.1854
rtibia 32.6822
rfoot -19.6498 -14.8634
rtoes -12.4128
lfemur -10.2582 -3.8136 -20.3742
ltibia 29.2266
lfoot -20.2947 9.43142
ltoes -13.9677
2639
root -0.278368 17.7712 -1.52214 1.52019 -0.867699 2.00676
lowerback 5.59824 1.78685 -0.264855
upperback 1.89198 2.36859 0.368504
thorax -1.21666 1.18135 0.371387
lowerneck -3.10675 -4.84045 -6.18776
upperneck 5.46725 -6.33342 3.30774
head 2.6321 -3.19001 1.92926
rclavicle 2.98674e-014 -1.98785e-015
rhumerus -39.9912 27.6731 -98.852
rradius 81.394
rwrist -5.99371
rhand -31.9733 28.9378
rfingers 7.12502
rthumb -5.22292 -0.97783
lclavicle 2.98674e-014 -1.98785e-015
lhumerus -46.532 -39.1211 107.943
lradius 89.8711
lwrist 2.53255
lhand -22.4006 18.0965
lfingers 7.12502
lthumb 4.02193 48.0382
rfemur -13.1483 0.935399 17.2685
rtibia 32.5897
rfoot -19.5802 -14.9705
rtoes -12.5487
lfemur -10.2553 -3.86324 -20.3071
ltibia 29.2848
lfoot -20.3318 9.45054
ltoes -14.0007
2640
root -0.278742 17.7749 -1.5202 1.49383 -0.829406 2.00692
lowerback 5.57512 1.81211 -0.345501
upperback 1.90081 2.39819 0.385563
thorax -1.199 1.196 0.432958
lowerneck -3.07892 -4.87351 -6.31923
upperneck 5.51231 -6.37722 3.37807
head 2.65364 -3.21327 1.97457
rclavicle 1.85367e-014 -2.78299e-015
rhumerus -40.6389 27.9253 -98.8777
rradius 81.1104
rwrist -7.08565
rhand -31.8756 28.6773
rfingers 7.12502
rthumb -5.12863 -1.24067
lclavicle 1.85367e-014 -2.78299e-015
lhumerus -47.2059 -39.2801 108.622
lradius 89.7985
lwrist 3.03899
lhand -22.3224 17.9005
lfingers 7.12502
lthumb 4.09743 47.8408
rfemur -13.05 0.905386 17.266
rtibia 32.4954
rfoot -19.5893 -14.9618
rtoes -12.6141
lfemur -10.2735 -3.92492 -20.3084
ltibia 29.3219
lfoot -20.2949 9.56022
ltoes -14.4722
2641
root -0.279902 17.7803 -1.51722 1.44954 -0.797172 2.03641
lowerback 5.53616 1.8409 -0.476377
upperback 1.93765 2.42943 0.373821
thorax -1.14471 1.21131 0.494143
lowerneck -3.09704 -4.90032 -6.32811
upperneck 5.5115 -6.41319 3.4055
head 2.66037 -3.23043 1.98337
rclavicle 3.42904e-015 -4.77083e-015
rhumerus -41.045 28.1719 -98.7657
rradius 80.8161
rwrist -8.18271
rhand -31.3336 28.4699
rfingers 7.12502
rthumb -4.60531 -1.46006
lclavicle 3.42904e-015 -4.77083e-015
lhumerus -47.7105 -39.5565 109.144
lradius 89.7591
lwrist 3.49993
lhand -22.2678 17.8477
lfingers 7.12502
lthumb 4.15018 47.787
rfemur -12.9286 0.881604 17.2379
rtibia 32.401
rfoot -19.5946 -14.979
rtoes -12.6636
lfemur -10.2619 -3.94316 -20.342
ltibia 29.3386
lfoot -20.2183 9.67862
ltoes -14.9872
2642
root -0.27877 17.7822 -1.51445 1.39847 -0.776067 2.06431
lowerback 5.51017 1.86492 -0.563414
upperback 1.96702 2.45638 0.33834
thorax -1.10249 1.22455 0.506212
lowerneck -3.10849 -4.92127 -6.30472
upperneck 5.52381 -6.44415 3.44006
head 2.66888 -3.24437 1.98904
rclavicle -1.77912e-014 -3.57812e-015
rhumerus -41.2661 28.4535 -98.4815
rradius 80.5302
rwrist -9.25255
rhand -30.6765 28.1948
rfingers 7.12502
rthumb -3.97076 -1.74797
lclavicle -1.77912e-014 -3.57812e-015
lhumerus -48.1599 -39.9479 109.581
lradius 89.7622
lwrist 3.97384
lhand -22.2654 17.7006
lfingers 7.12502
lthumb 4.15247 47.6399
rfemur -12.8047 0.896972 17.2013
rtibia 32.301
rfoot -19.5583 -15.0115
rtoes -12.687
lfemur -10.1938 -4.06032 -20.3922
ltibia 29.3434
lfoot -20.2685 9.73942
ltoes -14.8438
